<svg xmlns="http://www.w3.org/2000/svg" width="24" height="24" viewBox="0 0 24 24" fill="none" stroke="currentColor" stroke-width="2" stroke-linecap="round" stroke-linejoin="round" class="lucide lucide-square-pen h-8 w-8 text-[#e2392f]" aria-hidden="true" data-id="element-195" bis_size="{&quot;x&quot;:241,&quot;y&quot;:1158,&quot;w&quot;:32,&quot;h&quot;:32,&quot;abs_x&quot;:241,&quot;abs_y&quot;:1245}"><path d="M12 3H5a2 2 0 0 0-2 2v14a2 2 0 0 0 2 2h14a2 2 0 0 0 2-2v-7" bis_size="{&quot;x&quot;:245,&quot;y&quot;:1162,&quot;w&quot;:24,&quot;h&quot;:24,&quot;abs_x&quot;:245,&quot;abs_y&quot;:1249}"></path><path d="M18.375 2.625a1 1 0 0 1 3 3l-9.013 9.014a2 2 0 0 1-.853.505l-2.873.84a.5.5 0 0 1-.62-.62l.84-2.873a2 2 0 0 1 .506-.852z" bis_size="{&quot;x&quot;:251,&quot;y&quot;:1160,&quot;w&quot;:18,&quot;h&quot;:18,&quot;abs_x&quot;:251,&quot;abs_y&quot;:1247}"></path></svg>