<svg xmlns="http://www.w3.org/2000/svg" width="24" height="24" viewBox="0 0 24 24" fill="none" stroke="currentColor" stroke-width="2" stroke-linecap="round" stroke-linejoin="round" class="lucide lucide-qr-code h-8 w-8 text-[#e2392f]" aria-hidden="true" data-id="element-196" bis_size="{&quot;x&quot;:739,&quot;y&quot;:1158,&quot;w&quot;:32,&quot;h&quot;:32,&quot;abs_x&quot;:739,&quot;abs_y&quot;:1245}"><rect width="5" height="5" x="3" y="3" rx="1" bis_size="{&quot;x&quot;:743,&quot;y&quot;:1162,&quot;w&quot;:6,&quot;h&quot;:6,&quot;abs_x&quot;:743,&quot;abs_y&quot;:1249}"></rect><rect width="5" height="5" x="16" y="3" rx="1" bis_size="{&quot;x&quot;:760,&quot;y&quot;:1162,&quot;w&quot;:6,&quot;h&quot;:6,&quot;abs_x&quot;:760,&quot;abs_y&quot;:1249}"></rect><rect width="5" height="5" x="3" y="16" rx="1" bis_size="{&quot;x&quot;:743,&quot;y&quot;:1179,&quot;w&quot;:6,&quot;h&quot;:6,&quot;abs_x&quot;:743,&quot;abs_y&quot;:1266}"></rect><path d="M21 16h-3a2 2 0 0 0-2 2v3" bis_size="{&quot;x&quot;:760,&quot;y&quot;:1179,&quot;w&quot;:6,&quot;h&quot;:6,&quot;abs_x&quot;:760,&quot;abs_y&quot;:1266}"></path><path d="M21 21v.01" bis_size="{&quot;x&quot;:767,&quot;y&quot;:1186,&quot;w&quot;:0,&quot;h&quot;:0,&quot;abs_x&quot;:767,&quot;abs_y&quot;:1273}"></path><path d="M12 7v3a2 2 0 0 1-2 2H7" bis_size="{&quot;x&quot;:748,&quot;y&quot;:1167,&quot;w&quot;:6,&quot;h&quot;:6,&quot;abs_x&quot;:748,&quot;abs_y&quot;:1254}"></path><path d="M3 12h.01" bis_size="{&quot;x&quot;:743,&quot;y&quot;:1174,&quot;w&quot;:0,&quot;h&quot;:0,&quot;abs_x&quot;:743,&quot;abs_y&quot;:1261}"></path><path d="M12 3h.01" bis_size="{&quot;x&quot;:755,&quot;y&quot;:1162,&quot;w&quot;:0,&quot;h&quot;:0,&quot;abs_x&quot;:755,&quot;abs_y&quot;:1249}"></path><path d="M12 16v.01" bis_size="{&quot;x&quot;:755,&quot;y&quot;:1179,&quot;w&quot;:0,&quot;h&quot;:0,&quot;abs_x&quot;:755,&quot;abs_y&quot;:1266}"></path><path d="M16 12h1" bis_size="{&quot;x&quot;:760,&quot;y&quot;:1174,&quot;w&quot;:1,&quot;h&quot;:0,&quot;abs_x&quot;:760,&quot;abs_y&quot;:1261}"></path><path d="M21 12v.01" bis_size="{&quot;x&quot;:767,&quot;y&quot;:1174,&quot;w&quot;:0,&quot;h&quot;:0,&quot;abs_x&quot;:767,&quot;abs_y&quot;:1261}"></path><path d="M12 21v-1" bis_size="{&quot;x&quot;:755,&quot;y&quot;:1184,&quot;w&quot;:0,&quot;h&quot;:1,&quot;abs_x&quot;:755,&quot;abs_y&quot;:1271}"></path></svg>