<svg height="128" width="128" viewBox="0 0 41 41" role="img" data-id="element-173" bis_size="{&quot;x&quot;:639,&quot;y&quot;:136,&quot;w&quot;:128,&quot;h&quot;:128,&quot;abs_x&quot;:639,&quot;abs_y&quot;:223}"><path fill="#FFFFFF" d="M0,0 h41v41H0z" shape-rendering="crispEdges" bis_size="{&quot;x&quot;:639,&quot;y&quot;:136,&quot;w&quot;:128,&quot;h&quot;:128,&quot;abs_x&quot;:639,&quot;abs_y&quot;:223}"></path><path fill="#000000" d="M4 4h7v1H4zM12 4h2v1H12zM16 4h1v1H16zM18 4h2v1H18zM21 4h1v1H21zM25 4h4v1H25zM30,4 h7v1H30zM4 5h1v1H4zM10 5h1v1H10zM12 5h1v1H12zM15 5h1v1H15zM17 5h1v1H17zM19 5h1v1H19zM23 5h1v1H23zM27 5h1v1H27zM30 5h1v1H30zM36,5 h1v1H36zM4 6h1v1H4zM6 6h3v1H6zM10 6h1v1H10zM13 6h1v1H13zM16 6h2v1H16zM20 6h1v1H20zM22 6h1v1H22zM24 6h1v1H24zM26 6h1v1H26zM28 6h1v1H28zM30 6h1v1H30zM32 6h3v1H32zM36,6 h1v1H36zM4 7h1v1H4zM6 7h3v1H6zM10 7h1v1H10zM12 7h1v1H12zM15 7h7v1H15zM23 7h1v1H23zM26 7h1v1H26zM28 7h1v1H28zM30 7h1v1H30zM32 7h3v1H32zM36,7 h1v1H36zM4 8h1v1H4zM6 8h3v1H6zM10 8h1v1H10zM12 8h1v1H12zM17 8h1v1H17zM20 8h3v1H20zM24 8h1v1H24zM28 8h1v1H28zM30 8h1v1H30zM32 8h3v1H32zM36,8 h1v1H36zM4 9h1v1H4zM10 9h1v1H10zM12 9h1v1H12zM14 9h1v1H14zM16 9h1v1H16zM20 9h1v1H20zM24 9h2v1H24zM28 9h1v1H28zM30 9h1v1H30zM36,9 h1v1H36zM4 10h7v1H4zM12 10h1v1H12zM14 10h1v1H14zM16 10h1v1H16zM18 10h1v1H18zM20 10h1v1H20zM22 10h1v1H22zM24 10h1v1H24zM26 10h1v1H26zM28 10h1v1H28zM30,10 h7v1H30zM16 11h1v1H16zM19 11h3v1H19zM23 11h5v1H23zM7 12h1v1H7zM10 12h1v1H10zM13 12h1v1H13zM17 12h3v1H17zM25 12h1v1H25zM27 12h1v1H27zM31 12h3v1H31zM35,12 h2v1H35zM5 13h3v1H5zM11 13h1v1H11zM13 13h2v1H13zM16 13h1v1H16zM18 13h1v1H18zM21 13h1v1H21zM28 13h1v1H28zM30 13h1v1H30zM34,13 h3v1H34zM6 14h1v1H6zM8 14h1v1H8zM10 14h1v1H10zM14 14h1v1H14zM16 14h2v1H16zM24 14h3v1H24zM29 14h1v1H29zM33 14h2v1H33zM36,14 h1v1H36zM4 15h4v1H4zM9 15h1v1H9zM12 15h1v1H12zM14 15h1v1H14zM16 15h5v1H16zM28 15h1v1H28zM30 15h1v1H30zM36,15 h1v1H36zM6 16h1v1H6zM10 16h2v1H10zM13 16h2v1H13zM16 16h3v1H16zM22 16h2v1H22zM27 16h4v1H27zM32 16h1v1H32zM35 16h1v1H35zM4 17h1v1H4zM7 17h1v1H7zM9 17h1v1H9zM11 17h1v1H11zM13 17h3v1H13zM18 17h2v1H18zM22 17h1v1H22zM26 17h1v1H26zM29 17h2v1H29zM34 17h1v1H34zM36,17 h1v1H36zM5 18h2v1H5zM8 18h4v1H8zM14 18h1v1H14zM16 18h3v1H16zM21 18h1v1H21zM25 18h1v1H25zM27 18h2v1H27zM30 18h1v1H30zM33 18h1v1H33zM35 18h1v1H35zM4 19h1v1H4zM7 19h3v1H7zM11 19h1v1H11zM13 19h2v1H13zM16 19h1v1H16zM18 19h1v1H18zM20 19h2v1H20zM23 19h4v1H23zM29 19h1v1H29zM32 19h1v1H32zM34,19 h3v1H34zM6 20h2v1H6zM10 20h3v1H10zM15 20h2v1H15zM19 20h4v1H19zM24 20h2v1H24zM30 20h3v1H30zM34 20h2v1H34zM5 21h1v1H5zM12 21h1v1H12zM14 21h1v1H14zM18 21h1v1H18zM20 21h1v1H20zM22 21h1v1H22zM25 21h1v1H25zM27 21h1v1H27zM29 21h1v1H29zM34,21 h3v1H34zM6 22h1v1H6zM10 22h1v1H10zM12 22h2v1H12zM15 22h1v1H15zM19 22h8v1H19zM30 22h3v1H30zM34 22h1v1H34zM36,22 h1v1H36zM8 23h1v1H8zM12 23h1v1H12zM15 23h1v1H15zM17 23h1v1H17zM19 23h1v1H19zM21 23h2v1H21zM24 23h2v1H24zM29 23h1v1H29zM32 23h1v1H32zM35 23h1v1H35zM4 24h2v1H4zM8 24h1v1H8zM10 24h2v1H10zM13 24h2v1H13zM19 24h1v1H19zM21 24h2v1H21zM25 24h1v1H25zM27 24h2v1H27zM35 24h1v1H35zM5 25h1v1H5zM7 25h1v1H7zM11 25h3v1H11zM15 25h1v1H15zM17 25h4v1H17zM23 25h2v1H23zM27 25h2v1H27zM35,25 h2v1H35zM4 26h5v1H4zM10 26h1v1H10zM13 26h2v1H13zM16 26h3v1H16zM23 26h1v1H23zM26 26h5v1H26zM33 26h2v1H33zM36,26 h1v1H36zM5 27h1v1H5zM7 27h2v1H7zM13 27h1v1H13zM17 27h2v1H17zM20 27h2v1H20zM23 27h3v1H23zM27 27h4v1H27zM33 27h1v1H33zM4 28h1v1H4zM6 28h2v1H6zM9 28h3v1H9zM17 28h1v1H17zM22 28h1v1H22zM24 28h2v1H24zM27 28h6v1H27zM35 28h1v1H35zM12 29h2v1H12zM15 29h1v1H15zM17 29h3v1H17zM21 29h8v1H21zM32 29h1v1H32zM34 29h1v1H34zM36,29 h1v1H36zM4 30h7v1H4zM13 30h1v1H13zM16 30h1v1H16zM18 30h2v1H18zM21 30h1v1H21zM23 30h2v1H23zM26 30h1v1H26zM28 30h1v1H28zM30 30h1v1H30zM32 30h1v1H32zM35 30h1v1H35zM4 31h1v1H4zM10 31h1v1H10zM13 31h2v1H13zM16 31h1v1H16zM18 31h2v1H18zM21 31h1v1H21zM23 31h4v1H23zM28 31h1v1H28zM32 31h1v1H32zM36,31 h1v1H36zM4 32h1v1H4zM6 32h3v1H6zM10 32h1v1H10zM14 32h1v1H14zM16 32h2v1H16zM19 32h2v1H19zM22 32h1v1H22zM28 32h5v1H28zM4 33h1v1H4zM6 33h3v1H6zM10 33h1v1H10zM12 33h3v1H12zM16 33h4v1H16zM21 33h2v1H21zM24 33h1v1H24zM26 33h2v1H26zM30 33h1v1H30zM32 33h1v1H32zM36,33 h1v1H36zM4 34h1v1H4zM6 34h3v1H6zM10 34h1v1H10zM13 34h4v1H13zM18 34h3v1H18zM22 34h1v1H22zM25 34h1v1H25zM28 34h2v1H28zM31 34h4v1H31zM36,34 h1v1H36zM4 35h1v1H4zM10 35h1v1H10zM13 35h1v1H13zM15 35h1v1H15zM17 35h2v1H17zM22 35h1v1H22zM26 35h1v1H26zM28 35h1v1H28zM31 35h3v1H31zM4 36h7v1H4zM16 36h2v1H16zM19 36h3v1H19zM28 36h2v1H28zM31 36h2v1H31zM34 36h2v1H34z" shape-rendering="crispEdges" bis_size="{&quot;x&quot;:651,&quot;y&quot;:148,&quot;w&quot;:103,&quot;h&quot;:103,&quot;abs_x&quot;:651,&quot;abs_y&quot;:235}"></path></svg>